<mxfile host="Electron" modified="2024-01-15T10:05:46.966Z" agent="Mozilla/5.0 (Macintosh; Intel Mac OS X 10_15_7) AppleWebKit/537.36 (KHTML, like Gecko) draw.io/22.0.3 Chrome/114.0.5735.289 Electron/25.8.4 Safari/537.36" etag="U95bGN6-4RqfFNmFztBW" version="22.0.3" type="device">
  <diagram name="Page-1" id="joijpao1_roV__fPuoJ5">
    <mxGraphModel dx="970" dy="629" grid="1" gridSize="10" guides="1" tooltips="1" connect="1" arrows="1" fold="1" page="1" pageScale="1" pageWidth="827" pageHeight="1169" math="0" shadow="0">
      <root>
        <mxCell id="0" />
        <mxCell id="1" parent="0" />
        <mxCell id="Nu9j8f_D1wJVDgmzuwxA-1" value="Party" style="ellipse;whiteSpace=wrap;html=1;" vertex="1" parent="1">
          <mxGeometry x="340" y="190" width="180" height="60" as="geometry" />
        </mxCell>
        <mxCell id="Nu9j8f_D1wJVDgmzuwxA-2" value="Legal Entity" style="ellipse;whiteSpace=wrap;html=1;" vertex="1" parent="1">
          <mxGeometry x="10" y="260" width="180" height="60" as="geometry" />
        </mxCell>
        <mxCell id="Nu9j8f_D1wJVDgmzuwxA-3" value="" style="endArrow=classic;html=1;rounded=0;entryX=1;entryY=0.5;entryDx=0;entryDy=0;exitX=0;exitY=0.5;exitDx=0;exitDy=0;edgeStyle=orthogonalEdgeStyle;curved=1;" edge="1" parent="1" source="Nu9j8f_D1wJVDgmzuwxA-1" target="Nu9j8f_D1wJVDgmzuwxA-2">
          <mxGeometry width="50" height="50" relative="1" as="geometry">
            <mxPoint x="270" y="410" as="sourcePoint" />
            <mxPoint x="320" y="360" as="targetPoint" />
          </mxGeometry>
        </mxCell>
        <mxCell id="Nu9j8f_D1wJVDgmzuwxA-9" value="Related to" style="edgeLabel;html=1;align=center;verticalAlign=middle;resizable=0;points=[];" vertex="1" connectable="0" parent="Nu9j8f_D1wJVDgmzuwxA-3">
          <mxGeometry x="-0.0909" y="6" relative="1" as="geometry">
            <mxPoint as="offset" />
          </mxGeometry>
        </mxCell>
        <mxCell id="Nu9j8f_D1wJVDgmzuwxA-4" value="Contracts" style="ellipse;whiteSpace=wrap;html=1;" vertex="1" parent="1">
          <mxGeometry x="160" y="500" width="180" height="60" as="geometry" />
        </mxCell>
        <mxCell id="Nu9j8f_D1wJVDgmzuwxA-5" value="" style="endArrow=classic;html=1;rounded=0;exitX=0;exitY=1;exitDx=0;exitDy=0;edgeStyle=orthogonalEdgeStyle;curved=1;" edge="1" parent="1" source="Nu9j8f_D1wJVDgmzuwxA-1" target="Nu9j8f_D1wJVDgmzuwxA-4">
          <mxGeometry width="50" height="50" relative="1" as="geometry">
            <mxPoint x="490" y="350" as="sourcePoint" />
            <mxPoint x="540" y="300" as="targetPoint" />
          </mxGeometry>
        </mxCell>
        <mxCell id="Nu9j8f_D1wJVDgmzuwxA-6" value="participates" style="edgeLabel;html=1;align=center;verticalAlign=middle;resizable=0;points=[];" vertex="1" connectable="0" parent="Nu9j8f_D1wJVDgmzuwxA-5">
          <mxGeometry x="-0.1563" y="-12" relative="1" as="geometry">
            <mxPoint as="offset" />
          </mxGeometry>
        </mxCell>
        <mxCell id="Nu9j8f_D1wJVDgmzuwxA-7" value="" style="endArrow=classic;html=1;rounded=0;edgeStyle=orthogonalEdgeStyle;curved=1;" edge="1" parent="1" source="Nu9j8f_D1wJVDgmzuwxA-2" target="Nu9j8f_D1wJVDgmzuwxA-4">
          <mxGeometry width="50" height="50" relative="1" as="geometry">
            <mxPoint x="150" y="470" as="sourcePoint" />
            <mxPoint x="200" y="420" as="targetPoint" />
          </mxGeometry>
        </mxCell>
        <mxCell id="Nu9j8f_D1wJVDgmzuwxA-8" value="Issues" style="edgeLabel;html=1;align=center;verticalAlign=middle;resizable=0;points=[];" vertex="1" connectable="0" parent="Nu9j8f_D1wJVDgmzuwxA-7">
          <mxGeometry x="-0.2348" y="2" relative="1" as="geometry">
            <mxPoint as="offset" />
          </mxGeometry>
        </mxCell>
        <mxCell id="Nu9j8f_D1wJVDgmzuwxA-10" value="Entity" style="ellipse;whiteSpace=wrap;html=1;" vertex="1" parent="1">
          <mxGeometry x="600" y="60" width="180" height="60" as="geometry" />
        </mxCell>
        <mxCell id="Nu9j8f_D1wJVDgmzuwxA-11" value="Person" style="ellipse;whiteSpace=wrap;html=1;" vertex="1" parent="1">
          <mxGeometry x="600" y="330" width="180" height="60" as="geometry" />
        </mxCell>
        <mxCell id="Nu9j8f_D1wJVDgmzuwxA-12" value="" style="endArrow=classic;html=1;rounded=0;edgeStyle=orthogonalEdgeStyle;curved=1;" edge="1" parent="1" source="Nu9j8f_D1wJVDgmzuwxA-1" target="Nu9j8f_D1wJVDgmzuwxA-10">
          <mxGeometry width="50" height="50" relative="1" as="geometry">
            <mxPoint x="450" y="140" as="sourcePoint" />
            <mxPoint x="500" y="90" as="targetPoint" />
          </mxGeometry>
        </mxCell>
        <mxCell id="Nu9j8f_D1wJVDgmzuwxA-13" value="Can be" style="edgeLabel;html=1;align=center;verticalAlign=middle;resizable=0;points=[];" vertex="1" connectable="0" parent="Nu9j8f_D1wJVDgmzuwxA-12">
          <mxGeometry x="-0.2571" y="7" relative="1" as="geometry">
            <mxPoint as="offset" />
          </mxGeometry>
        </mxCell>
        <mxCell id="Nu9j8f_D1wJVDgmzuwxA-14" value="" style="endArrow=classic;html=1;rounded=0;exitX=1;exitY=1;exitDx=0;exitDy=0;edgeStyle=orthogonalEdgeStyle;curved=1;" edge="1" parent="1" source="Nu9j8f_D1wJVDgmzuwxA-1" target="Nu9j8f_D1wJVDgmzuwxA-11">
          <mxGeometry width="50" height="50" relative="1" as="geometry">
            <mxPoint x="480" y="360" as="sourcePoint" />
            <mxPoint x="530" y="310" as="targetPoint" />
          </mxGeometry>
        </mxCell>
        <mxCell id="Nu9j8f_D1wJVDgmzuwxA-15" value="Can be" style="edgeLabel;html=1;align=center;verticalAlign=middle;resizable=0;points=[];" vertex="1" connectable="0" parent="Nu9j8f_D1wJVDgmzuwxA-14">
          <mxGeometry x="0.1036" y="-29" relative="1" as="geometry">
            <mxPoint as="offset" />
          </mxGeometry>
        </mxCell>
        <mxCell id="Nu9j8f_D1wJVDgmzuwxA-17" value="Characteristics" style="ellipse;whiteSpace=wrap;html=1;" vertex="1" parent="1">
          <mxGeometry x="790" y="200" width="180" height="60" as="geometry" />
        </mxCell>
        <mxCell id="Nu9j8f_D1wJVDgmzuwxA-18" value="" style="endArrow=classic;html=1;rounded=0;edgeStyle=orthogonalEdgeStyle;curved=1;" edge="1" parent="1" source="Nu9j8f_D1wJVDgmzuwxA-10" target="Nu9j8f_D1wJVDgmzuwxA-17">
          <mxGeometry width="50" height="50" relative="1" as="geometry">
            <mxPoint x="780" y="180" as="sourcePoint" />
            <mxPoint x="830" y="130" as="targetPoint" />
          </mxGeometry>
        </mxCell>
        <mxCell id="Nu9j8f_D1wJVDgmzuwxA-19" value="Has Characteristics" style="edgeLabel;html=1;align=center;verticalAlign=middle;resizable=0;points=[];" vertex="1" connectable="0" parent="Nu9j8f_D1wJVDgmzuwxA-18">
          <mxGeometry x="0.2833" y="2" relative="1" as="geometry">
            <mxPoint as="offset" />
          </mxGeometry>
        </mxCell>
        <mxCell id="Nu9j8f_D1wJVDgmzuwxA-20" value="" style="endArrow=classic;html=1;rounded=0;edgeStyle=orthogonalEdgeStyle;curved=1;" edge="1" parent="1" source="Nu9j8f_D1wJVDgmzuwxA-11" target="Nu9j8f_D1wJVDgmzuwxA-17">
          <mxGeometry width="50" height="50" relative="1" as="geometry">
            <mxPoint x="760" y="310" as="sourcePoint" />
            <mxPoint x="930" y="380" as="targetPoint" />
          </mxGeometry>
        </mxCell>
        <mxCell id="Nu9j8f_D1wJVDgmzuwxA-21" value="Has Characteristics" style="edgeLabel;html=1;align=center;verticalAlign=middle;resizable=0;points=[];" vertex="1" connectable="0" parent="Nu9j8f_D1wJVDgmzuwxA-20">
          <mxGeometry x="0.2833" y="2" relative="1" as="geometry">
            <mxPoint x="-10" y="2" as="offset" />
          </mxGeometry>
        </mxCell>
        <mxCell id="Nu9j8f_D1wJVDgmzuwxA-22" value="Metadata" style="ellipse;whiteSpace=wrap;html=1;" vertex="1" parent="1">
          <mxGeometry x="220" y="20" width="180" height="60" as="geometry" />
        </mxCell>
        <mxCell id="Nu9j8f_D1wJVDgmzuwxA-23" value="" style="endArrow=classic;html=1;rounded=0;exitX=0.65;exitY=1;exitDx=0;exitDy=0;exitPerimeter=0;edgeStyle=orthogonalEdgeStyle;curved=1;" edge="1" parent="1" source="Nu9j8f_D1wJVDgmzuwxA-22" target="Nu9j8f_D1wJVDgmzuwxA-1">
          <mxGeometry width="50" height="50" relative="1" as="geometry">
            <mxPoint x="440" y="170" as="sourcePoint" />
            <mxPoint x="490" y="120" as="targetPoint" />
          </mxGeometry>
        </mxCell>
        <mxCell id="Nu9j8f_D1wJVDgmzuwxA-24" value="Documents" style="ellipse;whiteSpace=wrap;html=1;" vertex="1" parent="1">
          <mxGeometry x="414" y="570" width="180" height="60" as="geometry" />
        </mxCell>
        <mxCell id="Nu9j8f_D1wJVDgmzuwxA-25" value="" style="endArrow=classic;html=1;rounded=0;edgeStyle=orthogonalEdgeStyle;curved=1;" edge="1" parent="1" source="Nu9j8f_D1wJVDgmzuwxA-4" target="Nu9j8f_D1wJVDgmzuwxA-24">
          <mxGeometry width="50" height="50" relative="1" as="geometry">
            <mxPoint x="390" y="650" as="sourcePoint" />
            <mxPoint x="440" y="600" as="targetPoint" />
          </mxGeometry>
        </mxCell>
        <mxCell id="Nu9j8f_D1wJVDgmzuwxA-26" value="Associated" style="edgeLabel;html=1;align=center;verticalAlign=middle;resizable=0;points=[];" vertex="1" connectable="0" parent="Nu9j8f_D1wJVDgmzuwxA-25">
          <mxGeometry x="-0.1961" y="-4" relative="1" as="geometry">
            <mxPoint as="offset" />
          </mxGeometry>
        </mxCell>
        <mxCell id="Nu9j8f_D1wJVDgmzuwxA-27" value="" style="endArrow=classic;html=1;rounded=0;exitX=0.683;exitY=0.933;exitDx=0;exitDy=0;exitPerimeter=0;entryX=0.7;entryY=0.05;entryDx=0;entryDy=0;entryPerimeter=0;edgeStyle=orthogonalEdgeStyle;curved=1;" edge="1" parent="1" source="Nu9j8f_D1wJVDgmzuwxA-1" target="Nu9j8f_D1wJVDgmzuwxA-24">
          <mxGeometry width="50" height="50" relative="1" as="geometry">
            <mxPoint x="530" y="450" as="sourcePoint" />
            <mxPoint x="580" y="400" as="targetPoint" />
          </mxGeometry>
        </mxCell>
        <mxCell id="Nu9j8f_D1wJVDgmzuwxA-28" value="Holds" style="edgeLabel;html=1;align=center;verticalAlign=middle;resizable=0;points=[];" vertex="1" connectable="0" parent="Nu9j8f_D1wJVDgmzuwxA-27">
          <mxGeometry x="0.0201" y="2" relative="1" as="geometry">
            <mxPoint as="offset" />
          </mxGeometry>
        </mxCell>
        <mxCell id="Nu9j8f_D1wJVDgmzuwxA-30" value="Assets" style="ellipse;whiteSpace=wrap;html=1;" vertex="1" parent="1">
          <mxGeometry x="20" y="640" width="180" height="60" as="geometry" />
        </mxCell>
        <mxCell id="Nu9j8f_D1wJVDgmzuwxA-31" value="Accounts" style="ellipse;whiteSpace=wrap;html=1;" vertex="1" parent="1">
          <mxGeometry x="230" y="650" width="180" height="60" as="geometry" />
        </mxCell>
        <mxCell id="Nu9j8f_D1wJVDgmzuwxA-32" value="" style="endArrow=classic;html=1;rounded=0;edgeStyle=orthogonalEdgeStyle;curved=1;" edge="1" parent="1" source="Nu9j8f_D1wJVDgmzuwxA-4" target="Nu9j8f_D1wJVDgmzuwxA-31">
          <mxGeometry width="50" height="50" relative="1" as="geometry">
            <mxPoint x="140" y="620" as="sourcePoint" />
            <mxPoint x="190" y="570" as="targetPoint" />
          </mxGeometry>
        </mxCell>
        <mxCell id="Nu9j8f_D1wJVDgmzuwxA-33" value="Contains" style="edgeLabel;html=1;align=center;verticalAlign=middle;resizable=0;points=[];" vertex="1" connectable="0" parent="Nu9j8f_D1wJVDgmzuwxA-32">
          <mxGeometry x="0.025" y="2" relative="1" as="geometry">
            <mxPoint as="offset" />
          </mxGeometry>
        </mxCell>
        <mxCell id="Nu9j8f_D1wJVDgmzuwxA-34" value="" style="endArrow=classic;html=1;rounded=0;edgeStyle=orthogonalEdgeStyle;curved=1;" edge="1" parent="1" source="Nu9j8f_D1wJVDgmzuwxA-4" target="Nu9j8f_D1wJVDgmzuwxA-30">
          <mxGeometry width="50" height="50" relative="1" as="geometry">
            <mxPoint x="120" y="500" as="sourcePoint" />
            <mxPoint x="-20" y="640" as="targetPoint" />
          </mxGeometry>
        </mxCell>
        <mxCell id="Nu9j8f_D1wJVDgmzuwxA-35" value="Contains" style="edgeLabel;html=1;align=center;verticalAlign=middle;resizable=0;points=[];" vertex="1" connectable="0" parent="Nu9j8f_D1wJVDgmzuwxA-34">
          <mxGeometry x="-0.0364" y="-2" relative="1" as="geometry">
            <mxPoint as="offset" />
          </mxGeometry>
        </mxCell>
      </root>
    </mxGraphModel>
  </diagram>
</mxfile>
